<svg xmlns="http://www.w3.org/2000/svg" xmlns:xlink="http://www.w3.org/1999/xlink" width="32" height="32" viewBox="0 0 32 32">
  <defs>
    <clipPath id="clip-path">
      <rect id="長方形_12" data-name="長方形 12" width="32" height="32" transform="translate(2115 1030)" fill="#6f6f6f" stroke="#707070" stroke-width="1"/>
    </clipPath>
  </defs>
  <g id="マスクグループ_1" data-name="マスクグループ 1" transform="translate(-2115 -1030)" clip-path="url(#clip-path)">
    <path id="bell" d="M31.937,24.914c0-8.969-7.972-6.976-7.972-13.952a6.378,6.378,0,0,0-.157-1.495A8.643,8.643,0,0,0,17.9,2.262a1.775,1.775,0,0,0,.041-.379,1.993,1.993,0,0,0-3.986,0,1.782,1.782,0,0,0,.041.381,8.818,8.818,0,0,0-6.02,8.516q0,.09,0,.182C7.972,17.938,0,15.945,0,24.914c0,2.374,5.313,4.36,12.425,4.861a3.986,3.986,0,0,0,7.04,0c7.112-.5,12.425-2.486,12.425-4.861v-.021ZM25.731,26.6a34.13,34.13,0,0,1-5.817.955,3.986,3.986,0,0,0-7.941,0A34.049,34.049,0,0,1,6.157,26.6a9.741,9.741,0,0,1-3.842-1.685,9.772,9.772,0,0,1,3.842-1.685,39.456,39.456,0,0,1,9.788-1.118,39.451,39.451,0,0,1,9.786,1.118,9.741,9.741,0,0,1,3.84,1.685A9.772,9.772,0,0,1,25.729,26.6Z" transform="translate(2115.032 1030.11)" fill="#fff"/>
  </g>
</svg>
