<svg xmlns="http://www.w3.org/2000/svg" xmlns:xlink="http://www.w3.org/1999/xlink" width="32" height="32" viewBox="0 0 32 32">
  <defs>
    <clipPath id="clip-path">
      <rect id="長方形_14" data-name="長方形 14" width="32" height="32" transform="translate(2115 1114)" fill="#6f6f6f" stroke="#707070" stroke-width="1"/>
    </clipPath>
  </defs>
  <g id="マスクグループ_3" data-name="マスクグループ 3" transform="translate(-2115 -1114)" clip-path="url(#clip-path)">
    <path id="earth" d="M16,0A16,16,0,1,0,32,16,16,16,0,0,0,16,0Zm0,30a13.959,13.959,0,0,1-5.538-1.139l7.286-8.2A1,1,0,0,0,18,20V17a1,1,0,0,0-1-1c-3.531,0-7.256-3.671-7.293-3.707A1,1,0,0,0,9,12H5a1,1,0,0,0-1,1v6a1,1,0,0,0,.553.894L8,21.618v5.871A14.008,14.008,0,0,1,3.349,10H7a1,1,0,0,0,.707-.293l4-4A1,1,0,0,0,12,5V2.581a14.041,14.041,0,0,1,10.134.831c-.13.109-.256.224-.376.345A6,6,0,0,0,26,14c.1,0,.2,0,.3-.007a23.475,23.475,0,0,1-.263,11.635.936.936,0,0,0-.026.163A13.956,13.956,0,0,1,16,30Z" transform="translate(2115 1114)" fill="#fff"/>
  </g>
</svg>
