<svg xmlns="http://www.w3.org/2000/svg" xmlns:xlink="http://www.w3.org/1999/xlink" width="32" height="32" viewBox="0 0 32 32">
  <defs>
    <clipPath id="clip-path">
      <rect id="長方形_16" data-name="長方形 16" width="32" height="32" transform="translate(2115 1198)" fill="#6f6f6f" stroke="#707070" stroke-width="1"/>
    </clipPath>
  </defs>
  <g id="マスクグループ_5" data-name="マスクグループ 5" transform="translate(-2115 -1198)" clip-path="url(#clip-path)">
    <g id="icon-users" transform="translate(2115 1199.778)">
      <path id="パス_3" data-name="パス 3" d="M21.333,21.406V19.94a7.94,7.94,0,0,0,3.556-6.607c0-4.419,0-8-5.333-8s-5.333,3.581-5.333,8a7.939,7.939,0,0,0,3.556,6.606v1.466c-6.03.494-10.667,3.457-10.667,7.039H32C32,24.862,27.364,21.9,21.333,21.406Z" fill="#fff"/>
      <path id="パス_4" data-name="パス 4" d="M9.089,22.092a16.872,16.872,0,0,1,5.549-2.234,10.07,10.07,0,0,1-1.127-1.636,10.185,10.185,0,0,1-1.289-4.889c0-2.39,0-4.647.85-6.489A5.788,5.788,0,0,1,17.5,3.525C17.025,1.4,15.774,0,12.444,0,7.111,0,7.111,3.581,7.111,8a7.939,7.939,0,0,0,3.556,6.606v1.466C4.636,16.565,0,19.528,0,23.111H7.75a11.4,11.4,0,0,1,1.339-1.019Z" fill="#fff"/>
    </g>
  </g>
</svg>
