<svg xmlns="http://www.w3.org/2000/svg" xmlns:xlink="http://www.w3.org/1999/xlink" width="32" height="32" viewBox="0 0 32 32">
  <defs>
    <clipPath id="clip-path">
      <rect id="長方形_21" data-name="長方形 21" width="32" height="32" transform="translate(61 186)" fill="#fff" stroke="#707070" stroke-width="1"/>
    </clipPath>
  </defs>
  <g id="マスクグループ_8" data-name="マスクグループ 8" transform="translate(-61 -186)" clip-path="url(#clip-path)">
    <g id="グループ_38" data-name="グループ 38">
      <g id="合体_1" data-name="合体 1" transform="translate(2287 187)" fill="#fff">
        <path d="M -2209.99951171875 24.9923095703125 L -2212.99462890625 19.75171089172363 L -2213.138671875 19.49980163574219 L -2213.4287109375 19.49980163574219 L -2218.5 19.49980163574219 C -2222.359619140625 19.49980163574219 -2225.499755859375 16.35975074768066 -2225.499755859375 12.50010108947754 C -2225.499755859375 8.640450477600098 -2222.359619140625 5.500401020050049 -2218.5 5.500401020050049 L -2201.5 5.500401020050049 C -2197.640380859375 5.500401020050049 -2194.500244140625 8.640450477600098 -2194.500244140625 12.50010108947754 C -2194.500244140625 16.35975074768066 -2197.640380859375 19.49980163574219 -2201.5 19.49980163574219 L -2206.5712890625 19.49980163574219 L -2206.861572265625 19.49980163574219 L -2207.00537109375 19.75176048278809 L -2209.99951171875 24.9923095703125 Z" stroke="none"/>
        <path d="M -2209.999755859375 23.98452186584473 L -2207.151611328125 18.99980163574219 L -2201.5 18.99980163574219 C -2197.916015625 18.99980163574219 -2195.000244140625 16.08405113220215 -2195.000244140625 12.50010108947754 C -2195.000244140625 8.91615104675293 -2197.916015625 6.000401020050049 -2201.5 6.000401020050049 L -2218.5 6.000401020050049 C -2222.083984375 6.000401020050049 -2224.999755859375 8.91615104675293 -2224.999755859375 12.50010108947754 C -2224.999755859375 16.08405113220215 -2222.083984375 18.99980163574219 -2218.5 18.99980163574219 L -2212.848388671875 18.99980163574219 L -2209.999755859375 23.98452186584473 M -2209.99951171875 26.00010108947754 L -2213.4287109375 19.99980163574219 L -2218.5 19.99980163574219 C -2222.641845703125 19.99980163574219 -2225.999755859375 16.64190101623535 -2225.999755859375 12.50010108947754 C -2225.999755859375 8.358301162719727 -2222.641845703125 5.000401020050049 -2218.5 5.000401020050049 L -2201.5 5.000401020050049 C -2197.358154296875 5.000401020050049 -2194.000244140625 8.358301162719727 -2194.000244140625 12.50010108947754 C -2194.000244140625 16.64190101623535 -2197.358154296875 19.99980163574219 -2201.5 19.99980163574219 L -2206.5712890625 19.99980163574219 L -2209.99951171875 26.00010108947754 Z" stroke="none" fill="#f86a40"/>
      </g>
    </g>
  </g>
</svg>
